<svg id="visual" viewBox="0 0 275 275" width="275" height="275" xmlns="http://www.w3.org/2000/svg" xmlns:xlink="http://www.w3.org/1999/xlink" version="1.1"><defs><linearGradient id="grad1_0" x1="33.3%" y1="100%" x2="100%" y2="0%"><stop offset="20%" stop-color="#2563eb" stop-opacity="1"/><stop offset="80%" stop-color="#2563eb" stop-opacity="1"/></linearGradient></defs><defs><linearGradient id="grad1_1" x1="33.3%" y1="100%" x2="100%" y2="0%"><stop offset="20%" stop-color="#2563eb" stop-opacity="1"/><stop offset="80%" stop-color="#0e4aa6" stop-opacity="1"/></linearGradient></defs><defs><linearGradient id="grad1_2" x1="33.3%" y1="100%" x2="100%" y2="0%"><stop offset="20%" stop-color="#103065" stop-opacity="1"/><stop offset="80%" stop-color="#0e4aa6" stop-opacity="1"/></linearGradient></defs><defs><linearGradient id="grad1_3" x1="33.3%" y1="100%" x2="100%" y2="0%"><stop offset="20%" stop-color="#103065" stop-opacity="1"/><stop offset="80%" stop-color="#0f172a" stop-opacity="1"/></linearGradient></defs><defs><linearGradient id="grad2_0" x1="0%" y1="100%" x2="66.7%" y2="0%"><stop offset="20%" stop-color="#2563eb" stop-opacity="1"/><stop offset="80%" stop-color="#2563eb" stop-opacity="1"/></linearGradient></defs><defs><linearGradient id="grad2_1" x1="0%" y1="100%" x2="66.7%" y2="0%"><stop offset="20%" stop-color="#0e4aa6" stop-opacity="1"/><stop offset="80%" stop-color="#2563eb" stop-opacity="1"/></linearGradient></defs><defs><linearGradient id="grad2_2" x1="0%" y1="100%" x2="66.7%" y2="0%"><stop offset="20%" stop-color="#0e4aa6" stop-opacity="1"/><stop offset="80%" stop-color="#103065" stop-opacity="1"/></linearGradient></defs><defs><linearGradient id="grad2_3" x1="0%" y1="100%" x2="66.7%" y2="0%"><stop offset="20%" stop-color="#0f172a" stop-opacity="1"/><stop offset="80%" stop-color="#103065" stop-opacity="1"/></linearGradient></defs><g transform="translate(275, 275)"><path d="M-270.4 0C-268.9 -37.9 -267.3 -75.7 -249.8 -103.5C-232.4 -131.3 -199 -148.9 -173.2 -173.2C-147.5 -197.5 -129.4 -228.5 -101.8 -245.8C-74.2 -263.1 -37.1 -266.7 0 -270.4L0 0Z" fill="#112347"/><path d="M-202.8 0C-201.6 -28.4 -200.5 -56.8 -187.4 -77.6C-174.3 -98.4 -149.2 -111.7 -129.9 -129.9C-110.6 -148.2 -97 -171.3 -76.3 -184.3C-55.6 -197.3 -27.8 -200 0 -202.8L0 0Z" fill="#0d3d85"/><path d="M-135.2 0C-134.4 -18.9 -133.7 -37.9 -124.9 -51.7C-116.2 -65.6 -99.5 -74.5 -86.6 -86.6C-73.7 -98.8 -64.7 -114.2 -50.9 -122.9C-37.1 -131.5 -18.5 -133.4 0 -135.2L0 0Z" fill="#1656c8"/><path d="M-67.6 0C-67.2 -9.5 -66.8 -18.9 -62.5 -25.9C-58.1 -32.8 -49.7 -37.2 -43.3 -43.3C-36.9 -49.4 -32.3 -57.1 -25.4 -61.4C-18.5 -65.8 -9.3 -66.7 0 -67.6L0 0Z" fill="#2563eb"/></g></svg>