<svg id="visual" viewBox="0 0 275 275" width="275" height="275" xmlns="http://www.w3.org/2000/svg" xmlns:xlink="http://www.w3.org/1999/xlink" version="1.1"><defs><linearGradient id="grad1_0" x1="33.3%" y1="100%" x2="100%" y2="0%"><stop offset="20%" stop-color="#2563eb" stop-opacity="1"/><stop offset="80%" stop-color="#2563eb" stop-opacity="1"/></linearGradient></defs><defs><linearGradient id="grad1_1" x1="33.3%" y1="100%" x2="100%" y2="0%"><stop offset="20%" stop-color="#2563eb" stop-opacity="1"/><stop offset="80%" stop-color="#0e4aa6" stop-opacity="1"/></linearGradient></defs><defs><linearGradient id="grad1_2" x1="33.3%" y1="100%" x2="100%" y2="0%"><stop offset="20%" stop-color="#103065" stop-opacity="1"/><stop offset="80%" stop-color="#0e4aa6" stop-opacity="1"/></linearGradient></defs><defs><linearGradient id="grad1_3" x1="33.3%" y1="100%" x2="100%" y2="0%"><stop offset="20%" stop-color="#103065" stop-opacity="1"/><stop offset="80%" stop-color="#0f172a" stop-opacity="1"/></linearGradient></defs><defs><linearGradient id="grad2_0" x1="0%" y1="100%" x2="66.7%" y2="0%"><stop offset="20%" stop-color="#2563eb" stop-opacity="1"/><stop offset="80%" stop-color="#2563eb" stop-opacity="1"/></linearGradient></defs><defs><linearGradient id="grad2_1" x1="0%" y1="100%" x2="66.7%" y2="0%"><stop offset="20%" stop-color="#0e4aa6" stop-opacity="1"/><stop offset="80%" stop-color="#2563eb" stop-opacity="1"/></linearGradient></defs><defs><linearGradient id="grad2_2" x1="0%" y1="100%" x2="66.7%" y2="0%"><stop offset="20%" stop-color="#0e4aa6" stop-opacity="1"/><stop offset="80%" stop-color="#103065" stop-opacity="1"/></linearGradient></defs><defs><linearGradient id="grad2_3" x1="0%" y1="100%" x2="66.7%" y2="0%"><stop offset="20%" stop-color="#0f172a" stop-opacity="1"/><stop offset="80%" stop-color="#103065" stop-opacity="1"/></linearGradient></defs><g><path d="M270.4 0C268.8 37.9 267.2 75.7 249.8 103.5C232.5 131.3 199.4 149 173.9 173.9C148.5 198.9 130.7 231.2 102.9 248.5C75.2 265.8 37.6 268.1 0 270.4L0 0Z" fill="#112347"/><path d="M202.8 0C201.6 28.4 200.4 56.8 187.4 77.6C174.4 98.4 149.6 111.7 130.5 130.5C111.4 149.2 98 173.4 77.2 186.4C56.4 199.4 28.2 201.1 0 202.8L0 0Z" fill="#0d3d85"/><path d="M135.2 0C134.4 18.9 133.6 37.9 124.9 51.7C116.2 65.6 99.7 74.5 87 87C74.2 99.5 65.3 115.6 51.5 124.3C37.6 132.9 18.8 134.1 0 135.2L0 0Z" fill="#1656c8"/><path d="M67.6 0C67.2 9.5 66.8 18.9 62.5 25.9C58.1 32.8 49.9 37.2 43.5 43.5C37.1 49.7 32.7 57.8 25.7 62.1C18.8 66.5 9.4 67 0 67.6L0 0Z" fill="#2563eb"/></g></svg>